<svg width="18" height="18" viewBox="0 0 22 22" fill="none" xmlns="http://www.w3.org/2000/svg" className="pageIcon ant-menu-item-icon"><path d="M4.46111 7.18056H8.92222C9.1463 7.18056 9.32963 7.10926 9.47222 6.96667C9.61481 6.82407 9.68611 6.64074 9.68611 6.41667C9.68611 6.19259 9.61481 6.00926 9.47222 5.86667C9.32963 5.72407 9.1463 5.65278 8.92222 5.65278H4.46111C4.23704 5.65278 4.0537 5.72407 3.91111 5.86667C3.76852 6.00926 3.69722 6.19259 3.69722 6.41667C3.69722 6.64074 3.76852 6.82407 3.91111 6.96667C4.0537 7.10926 4.23704 7.18056 4.46111 7.18056ZM13.2611 17.6306H17.875C18.0991 17.6306 18.2824 17.5593 18.425 17.4167C18.5676 17.2741 18.6389 17.0907 18.6389 16.8667C18.6389 16.663 18.5676 16.4898 18.425 16.3472C18.2824 16.2046 18.0991 16.1333 17.875 16.1333H13.2611C13.037 16.1333 12.8537 16.2046 12.7111 16.3472C12.5685 16.4898 12.4972 16.663 12.4972 16.8667C12.4972 17.0907 12.5685 17.2741 12.7111 17.4167C12.8537 17.5593 13.037 17.6306 13.2611 17.6306ZM13.2611 14.3611H17.875C18.0991 14.3611 18.2824 14.2898 18.425 14.1472C18.5676 14.0046 18.6389 13.8213 18.6389 13.5972C18.6389 13.3731 18.5676 13.1898 18.425 13.0472C18.2824 12.9046 18.0991 12.8333 17.875 12.8333H13.2611C13.037 12.8333 12.8537 12.9046 12.7111 13.0472C12.5685 13.1898 12.4972 13.3731 12.4972 13.5972C12.4972 13.8213 12.5685 14.0046 12.7111 14.1472C12.8537 14.2898 13.037 14.3611 13.2611 14.3611ZM6.69167 18.7C6.91574 18.7 7.09907 18.6287 7.24167 18.4861C7.38426 18.3435 7.45556 18.1602 7.45556 17.9361V16.0111H9.38056C9.60463 16.0111 9.78796 15.9398 9.93056 15.7972C10.0731 15.6546 10.1444 15.4713 10.1444 15.2472C10.1444 15.0231 10.0731 14.8398 9.93056 14.6972C9.78796 14.5546 9.60463 14.4833 9.38056 14.4833H7.45556V12.5583C7.45556 12.3343 7.38426 12.1509 7.24167 12.0083C7.09907 11.8657 6.91574 11.7944 6.69167 11.7944C6.46759 11.7944 6.28426 11.8657 6.14167 12.0083C5.99907 12.1509 5.92778 12.3343 5.92778 12.5583V14.4833H4.00278C3.7787 14.4833 3.59537 14.5546 3.45278 14.6972C3.31018 14.8398 3.23889 15.0231 3.23889 15.2472C3.23889 15.4713 3.31018 15.6546 3.45278 15.7972C3.59537 15.9398 3.7787 16.0111 4.00278 16.0111H5.92778V17.9361C5.92778 18.1602 5.99907 18.3435 6.14167 18.4861C6.28426 18.6287 6.46759 18.7 6.69167 18.7ZM13.0778 8.83056C13.2407 8.99352 13.4241 9.075 13.6278 9.075C13.8315 9.075 14.0148 8.99352 14.1778 8.83056L15.4917 7.51667L16.8361 8.86111C16.9787 9.0037 17.1519 9.075 17.3556 9.075C17.5593 9.075 17.7426 8.99352 17.9056 8.83056C18.0685 8.66759 18.15 8.48426 18.15 8.28055C18.15 8.07685 18.0685 7.89352 17.9056 7.73056L16.5917 6.41667L17.9361 5.07222C18.0787 4.92963 18.15 4.75648 18.15 4.55278C18.15 4.34907 18.0685 4.16574 17.9056 4.00278C17.7426 3.83981 17.5593 3.75833 17.3556 3.75833C17.1519 3.75833 16.9685 3.83981 16.8056 4.00278L15.4917 5.31667L14.1472 3.97222C14.0046 3.82963 13.8315 3.75833 13.6278 3.75833C13.4241 3.75833 13.2407 3.83981 13.0778 4.00278C12.9148 4.16574 12.8333 4.34907 12.8333 4.55278C12.8333 4.75648 12.9148 4.93981 13.0778 5.10278L14.3917 6.41667L13.0472 7.76111C12.9046 7.9037 12.8333 8.07685 12.8333 8.28055C12.8333 8.48426 12.9148 8.66759 13.0778 8.83056ZM1.83333 22C1.34444 22 0.916667 21.8167 0.55 21.45C0.183333 21.0833 0 20.6556 0 20.1667V1.83333C0 1.34444 0.183333 0.916667 0.55 0.55C0.916667 0.183333 1.34444 0 1.83333 0H20.1667C20.6556 0 21.0833 0.183333 21.45 0.55C21.8167 0.916667 22 1.34444 22 1.83333V20.1667C22 20.6556 21.8167 21.0833 21.45 21.45C21.0833 21.8167 20.6556 22 20.1667 22H1.83333Z" fill="white"></path></svg>