<svg width="18" height="18" viewBox="0 0 24 27" fill="none" xmlns="http://www.w3.org/2000/svg" className="pageIcon ant-menu-item-icon"><path d="M10.1792 16.9125L6.98472 13.6625C6.79306 13.4675 6.56944 13.37 6.31389 13.37C6.05833 13.37 5.83472 13.4675 5.64306 13.6625C5.45139 13.8575 5.36088 14.085 5.37153 14.345C5.38218 14.605 5.47269 14.8325 5.64306 15.0275L9.50833 19.025C9.7 19.22 9.92361 19.3175 10.1792 19.3175C10.4347 19.3175 10.6583 19.22 10.85 19.025L18.3569 11.3875C18.5486 11.1925 18.6444 10.9596 18.6444 10.6887C18.6444 10.4179 18.5486 10.185 18.3569 9.99C18.1653 9.795 17.9363 9.6975 17.6701 9.6975C17.4039 9.6975 17.175 9.795 16.9833 9.99L10.1792 16.9125ZM2.41667 26.5C1.88426 26.5 1.43171 26.3104 1.05903 25.9312C0.686343 25.5521 0.5 25.0917 0.5 24.55V5.05C0.5 4.50833 0.686343 4.04792 1.05903 3.66875C1.43171 3.28958 1.88426 3.1 2.41667 3.1H8.96528C9.07176 2.34167 9.4125 1.71875 9.9875 1.23125C10.5625 0.74375 11.2333 0.5 12 0.5C12.7667 0.5 13.4375 0.74375 14.0125 1.23125C14.5875 1.71875 14.9282 2.34167 15.0347 3.1H21.5833C22.1157 3.1 22.5683 3.28958 22.941 3.66875C23.3137 4.04792 23.5 4.50833 23.5 5.05V24.55C23.5 25.0917 23.3137 25.5521 22.941 25.9312C22.5683 26.3104 22.1157 26.5 21.5833 26.5H2.41667ZM12 4.4975C12.2981 4.4975 12.559 4.38375 12.7826 4.15625C13.0063 3.92875 13.1181 3.66333 13.1181 3.36C13.1181 3.05667 13.0063 2.79125 12.7826 2.56375C12.559 2.33625 12.2981 2.2225 12 2.2225C11.7019 2.2225 11.441 2.33625 11.2174 2.56375C10.9938 2.79125 10.8819 3.05667 10.8819 3.36C10.8819 3.66333 10.9938 3.92875 11.2174 4.15625C11.441 4.38375 11.7019 4.4975 12 4.4975Z" fill="white"></path></svg>