<svg width="18" height="18" viewBox="0 0 26 26" fill="none" xmlns="http://www.w3.org/2000/svg"><path d="M1.85714 24.7031C1.3619 24.7031 0.928571 24.5178 0.557143 24.1473C0.185714 23.7767 0 23.3444 0 22.8504V18.7743H1.85714V22.8504H5.94286V24.7031H1.85714ZM8.57381 19.9169L9.99762 12.6603L6.90238 14.1116V18.2494H5.04524V12.8456L10.1214 10.715C10.7817 10.4268 11.2512 10.2466 11.5298 10.1746C11.8083 10.1025 12.0879 10.0665 12.3686 10.0665C12.7895 10.0665 13.1599 10.154 13.4798 10.329C13.7996 10.504 14.073 10.7664 14.3 11.1164L15.6 13.1853L15.7445 13.3911C15.7926 13.4598 15.8373 13.5249 15.8786 13.5867C14.8262 14.266 13.9802 15.1564 13.3405 16.2577C12.7008 17.3591 12.3603 18.5788 12.319 19.9169H8.57381ZM14.2406 8.83135C13.6199 8.83135 13.0877 8.61088 12.644 8.16993C12.2004 7.72896 11.9786 7.19887 11.9786 6.57967C11.9786 5.96044 12.1996 5.42953 12.6416 4.98694C13.0836 4.54434 13.6149 4.32304 14.2356 4.32304C14.8563 4.32304 15.3885 4.54352 15.8321 4.98447C16.2758 5.42544 16.4976 5.95552 16.4976 6.57473C16.4976 7.19395 16.2766 7.72486 15.8346 8.16746C15.3926 8.61006 14.8612 8.83135 14.2406 8.83135ZM0 5.92874V1.85273C0 1.35867 0.185714 0.926366 0.557143 0.55582C0.928571 0.185273 1.3619 0 1.85714 0H5.94286V1.85273H1.85714V5.92874H0ZM22.9048 5.92874V1.85273H18.819V0H22.9048C23.4 0 23.8333 0.185273 24.2048 0.55582C24.5762 0.926366 24.7619 1.35867 24.7619 1.85273V5.92874H22.9048ZM20.1036 26C18.4631 26 17.0651 25.425 15.9095 24.2749C14.754 23.1248 14.1762 21.7339 14.1762 20.1021C14.1762 18.4553 14.7526 17.0606 15.9054 15.9181C17.0582 14.7755 18.4525 14.2043 20.0881 14.2043C21.7389 14.2043 23.1369 14.7755 24.2821 15.9181C25.4274 17.0606 26 18.4501 26 20.0867C26 21.7233 25.4274 23.118 24.2821 24.2708C23.1369 25.4236 21.744 26 20.1036 26ZM19.6238 21.0285H20.7071V16.6128H19.6238V21.0285ZM20.1655 23.6532C20.3615 23.6532 20.5266 23.5914 20.6607 23.4679C20.7948 23.3444 20.8619 23.1797 20.8619 22.9739C20.8619 22.768 20.7938 22.6033 20.6576 22.4798C20.5214 22.3563 20.3625 22.2945 20.181 22.2945C19.9746 22.2945 19.8095 22.3563 19.6857 22.4798C19.5619 22.6033 19.5 22.768 19.5 22.9739C19.5 23.1797 19.5619 23.3444 19.6857 23.4679C19.8095 23.5914 19.9694 23.6532 20.1655 23.6532Z" fill="white"></path></svg>