<svg width="18" height="18" viewBox="0 0 21 27" fill="none" xmlns="http://www.w3.org/2000/svg" className="pageIcon ant-menu-item-icon"><path d="M6.23437 13.1757H14.7656C15.05 13.1757 15.2852 13.0839 15.4711 12.9001C15.657 12.7164 15.75 12.484 15.75 12.2029C15.75 11.9219 15.657 11.6895 15.4711 11.5058C15.2852 11.322 15.05 11.2302 14.7656 11.2302H6.23437C5.95 11.2302 5.71484 11.322 5.52891 11.5058C5.34297 11.6895 5.25 11.9219 5.25 12.2029C5.25 12.484 5.34297 12.7164 5.52891 12.9001C5.71484 13.0839 5.95 13.1757 6.23437 13.1757ZM6.23437 7.98751H14.7656C15.05 7.98751 15.2852 7.89563 15.4711 7.71188C15.657 7.52813 15.75 7.29574 15.75 7.01471C15.75 6.73368 15.657 6.50129 15.4711 6.31754C15.2852 6.13379 15.05 6.04192 14.7656 6.04192H6.23437C5.95 6.04192 5.71484 6.13379 5.52891 6.31754C5.34297 6.50129 5.25 6.73368 5.25 7.01471C5.25 7.29574 5.34297 7.52813 5.52891 7.71188C5.71484 7.89563 5.95 7.98751 6.23437 7.98751ZM20.9344 25.0438L15.3562 17.8452C15.0062 17.4128 14.5797 17.0669 14.0766 16.8075C13.5734 16.5481 13.0375 16.4184 12.4687 16.4184H0V2.47501C0 1.95618 0.196875 1.50221 0.590625 1.1131C0.984375 0.723978 1.44375 0.529419 1.96875 0.529419H19.0312C19.5562 0.529419 20.0156 0.723978 20.4094 1.1131C20.8031 1.50221 21 1.95618 21 2.47501V24.525C21 24.6115 20.9945 24.698 20.9836 24.7844C20.9727 24.8709 20.9562 24.9574 20.9344 25.0438ZM1.96875 26.4706C1.44375 26.4706 0.984375 26.276 0.590625 25.8869C0.196875 25.4978 0 25.0438 0 24.525V18.364H12.4687C12.7312 18.364 12.9773 18.4234 13.207 18.5423C13.4367 18.6612 13.6391 18.8288 13.8141 19.0449L19.5234 26.4057C19.4359 26.4274 19.3539 26.4436 19.2773 26.4544C19.2008 26.4652 19.1187 26.4706 19.0312 26.4706H1.96875Z" fill="white"></path></svg> 