<svg xmlns="http://www.w3.org/2000/svg" width="18" height="18" viewBox="0 0 18.337 13.9" ><g id="Group_6327" data-name="Group 6327" transform="translate(2038 409)"><path id="Path_7506" data-name="Path 7506" d="M1.182,13.813h0A1.186,1.186,0,0,1,0,12.631V7.2a1.182,1.182,0,1,1,2.364,0v5.428a1.186,1.186,0,0,1-1.182,1.182" transform="translate(-2038 -409)" fill="#fff"></path><path id="Path_7507" data-name="Path 7507" d="M17.414,4.73l-1.178-.422.337-.943a1,1,0,0,0-.6-1.281L10.311.058a1,1,0,0,0-1.28.6L7.511,4.906a1,1,0,0,0,.605,1.281A1.5,1.5,0,0,0,10.93,7.242l.015-.042,2.828,1.013a1.5,1.5,0,0,0,2.814,1.055l.015-.042.472.169a.5.5,0,0,0,.642-.3l.562-1.569a1.007,1.007,0,0,0,.014-.635l-.566-1.835a.506.506,0,0,0-.31-.325ZM9.362,7.165a.5.5,0,1,1,.642-.3.5.5,0,0,1-.642.3m7.8-1.728.5,1.51-2.1-.753.423-1.179ZM15.019,9.191a.5.5,0,1,1,.642-.3.5.5,0,0,1-.642.3" transform="translate(-2038 -409)" fill="#fff"></path><path id="Path_7508" data-name="Path 7508" d="M7.892,9.237c-.105.311-.19.566-.283.841.972.327,1.923.656,2.882.961a1.087,1.087,0,0,0,.517-.024c1.379-.286,2.754-.587,4.134-.869a3.58,3.58,0,0,1,2.909.621.722.722,0,0,1,.284.541c-.012.136-.262.32-.436.363q-4.559,1.124-9.125,2.207a.984.984,0,0,1-.505-.025c-1.588-.524-3.17-1.066-4.758-1.59a.412.412,0,0,1-.345-.439c-.045-1.145-.12-2.288-.178-3.433a.713.713,0,0,1,.05-.358A3.183,3.183,0,0,1,6.175,6.567a7.921,7.921,0,0,1,1.48.682c.321.156.623.36.955.487.652.248,1.321.454,1.981.684a.82.82,0,1,1-.506,1.553c-.723-.235-1.441-.483-2.193-.736" transform="translate(-2038 -409)" fill="#fff"></path></g></svg>