 <svg width="18" height="18" viewBox="0 0 26 24" xmlns="http://www.w3.org/2000/svg" className="pageIcon ant-menu-item-icon"><path d="M0.950745 23.5C0.764417 23.5 0.602393 23.4567 0.464676 23.37C0.326958 23.2834 0.21984 23.1692 0.143321 23.0274C0.0570508 22.8888 0.0096094 22.7386 0.000996877 22.5768C-0.00763635 22.4151 0.039805 22.2502 0.143321 22.0822L12.1926 0.972603C12.2961 0.804566 12.4151 0.68379 12.5497 0.610274C12.6843 0.536758 12.8344 0.5 13 0.5C13.1656 0.5 13.3157 0.536758 13.4503 0.610274C13.5849 0.68379 13.7039 0.804566 13.8074 0.972603L25.8567 22.0822C25.9602 22.2502 26.0076 22.4151 25.999 22.5768C25.9904 22.7386 25.9429 22.8888 25.8567 23.0274C25.7802 23.1692 25.673 23.2834 25.5353 23.37C25.3976 23.4567 25.2356 23.5 25.0493 23.5H0.950745ZM13.1297 19.8137C13.3952 19.8137 13.6159 19.7226 13.7919 19.5404C13.9679 19.3581 14.0559 19.1323 14.0559 18.863C14.0559 18.5936 13.9661 18.3696 13.7865 18.1911C13.6068 18.0126 13.3843 17.9233 13.1188 17.9233C12.8533 17.9233 12.6325 18.0144 12.4565 18.1966C12.2806 18.3788 12.1926 18.6046 12.1926 18.874C12.1926 19.1434 12.2824 19.3674 12.462 19.5459C12.6416 19.7244 12.8642 19.8137 13.1297 19.8137ZM13.1297 16.3164C13.3952 16.3164 13.6159 16.2259 13.7919 16.0447C13.9679 15.8635 14.0559 15.639 14.0559 15.3712V10.2041C14.0559 9.9363 13.9661 9.71181 13.7865 9.53065C13.6068 9.34949 13.3843 9.2589 13.1188 9.2589C12.8533 9.2589 12.6325 9.34949 12.4565 9.53065C12.2806 9.71181 12.1926 9.9363 12.1926 10.2041V15.3712C12.1926 15.639 12.2824 15.8635 12.462 16.0447C12.6416 16.2259 12.8642 16.3164 13.1297 16.3164Z " fill="#fff"></path></svg>