<svg width="18" height="18" viewBox="0 0 24 18" fill="none" xmlns="http://www.w3.org/2000/svg" className="pageIcon ant-menu-item-icon"><path d="M21.8973 9.53333L19.5072 7.16667L20.4834 6.2C20.6699 6.02222 20.9073 5.93333 21.1956 5.93333C21.4839 5.93333 21.7178 6.02222 21.8973 6.2L22.8736 7.16667C23.0531 7.35136 23.1429 7.58642 23.1429 7.87187C23.1429 8.15729 23.0531 8.38889 22.8736 8.56667L21.8973 9.53333ZM10.9564 18V15.6333L18.0596 8.6L20.4498 10.9667L13.3466 18H10.9564ZM1.85718 13C1.30489 13 0.857178 12.5523 0.857178 12V12C0.857178 11.4477 1.30489 11 1.85718 11H9.95645C10.5087 11 10.9564 11.4477 10.9564 12V12C10.9564 12.5523 10.5087 13 9.95644 13H1.85718ZM1.85718 7.5C1.30489 7.5 0.857178 7.05228 0.857178 6.5V6.5C0.857178 5.94772 1.30489 5.5 1.85718 5.5H15.6794C16.2316 5.5 16.6794 5.94772 16.6794 6.5V6.5C16.6794 7.05228 16.2316 7.5 15.6794 7.5H1.85718ZM1.85718 2C1.30489 2 0.857178 1.55228 0.857178 1V1C0.857178 0.447715 1.30489 0 1.85718 0H15.6794C16.2316 0 16.6794 0.447715 16.6794 1V1C16.6794 1.55228 16.2316 2 15.6794 2H1.85718Z" fill="white"></path></svg>