<svg width="18" height="18" viewBox="0 0 22 27" fill="none" xmlns="http://www.w3.org/2000/svg" className="pageIcon ant-menu-item-icon"><path d="M6.70156 20.975H15.2984C15.5773 20.975 15.8111 20.881 15.9998 20.6931C16.1885 20.5051 16.2828 20.2722 16.2828 19.9943C16.2828 19.7164 16.1885 19.4854 15.9998 19.3012C15.8111 19.1171 15.5773 19.025 15.2984 19.025H6.70156C6.42266 19.025 6.18887 19.119 6.0002 19.3069C5.81152 19.4949 5.71719 19.7278 5.71719 20.0057C5.71719 20.2836 5.81152 20.5146 6.0002 20.6987C6.18887 20.8829 6.42266 20.975 6.70156 20.975ZM6.70156 15.45H15.2984C15.5773 15.45 15.8111 15.356 15.9998 15.1681C16.1885 14.9801 16.2828 14.7472 16.2828 14.4693C16.2828 14.1914 16.1885 13.9604 15.9998 13.7762C15.8111 13.5921 15.5773 13.5 15.2984 13.5H6.70156C6.42266 13.5 6.18887 13.594 6.0002 13.7819C5.81152 13.9699 5.71719 14.2028 5.71719 14.4807C5.71719 14.7586 5.81152 14.9896 6.0002 15.1737C6.18887 15.3579 6.42266 15.45 6.70156 15.45ZM2.46875 26.5C1.94375 26.5 1.48437 26.305 1.09062 25.915C0.696875 25.525 0.5 25.07 0.5 24.55V2.45C0.5 1.93 0.696875 1.475 1.09062 1.085C1.48437 0.695 1.94375 0.5 2.46875 0.5H13.4937C13.766 0.5 14.0254 0.554167 14.2721 0.6625C14.5188 0.770833 14.7297 0.911667 14.9047 1.085L20.9094 7.0325C21.0844 7.20583 21.2266 7.41468 21.3359 7.65904C21.4453 7.90339 21.5 8.16038 21.5 8.43V24.55C21.5 25.07 21.3031 25.525 20.9094 25.915C20.5156 26.305 20.0562 26.5 19.5312 26.5H2.46875ZM13.3297 7.52C13.3297 7.79625 13.424 8.02781 13.6127 8.21469C13.8014 8.40156 14.0352 8.495 14.3141 8.495H19.5312L13.3297 2.45V7.52Z" fill="white"></path></svg> 