<svg width="18" height="18" viewBox="0 0 26 26" xmlns="http://www.w3.org/2000/svg" className="pageIcon ant-menu-item-icon"><path fillRule="evenodd" clipRule="evenodd" d="M18.3602 5.66453C18.3602 6.99833 19.4414 8.07945 20.7751 8.07945C22.1089 8.07945 23.19 6.99833 23.19 5.66453C23.19 4.33117 22.1089 3.25 20.7751 3.25C19.4414 3.24995 18.3602 4.33117 18.3602 5.66453ZM6.55942 12.9529C8.35976 12.8097 9.92788 12.0227 11.1132 11.1768H14.8868C16.0721 12.0227 17.6402 12.8097 19.4405 12.9529V18.58C19.4405 22.2109 15.7544 25.2619 12.9999 25.9999C10.2455 25.2619 6.55937 22.2109 6.55937 18.58V12.9529H6.55942ZM9.27653 17.4211L10.757 20.3822C10.8614 20.591 11.131 20.6555 11.3183 20.5184L16.6094 16.6508C16.778 16.5273 16.8144 16.2905 16.6909 16.122C16.5674 15.9535 16.3307 15.917 16.1621 16.0405L11.2323 19.6441L9.95193 17.0834C9.85871 16.8969 9.63186 16.8212 9.44537 16.9145C9.25887 17.0078 9.18325 17.2346 9.27653 17.4211ZM8.01948 14.1981V18.58C8.01948 19.785 8.60524 20.9873 9.4731 22.0063C10.4415 23.1435 11.7528 24.0459 13 24.475C14.2472 24.0459 15.5585 23.1435 16.5269 22.0063C17.3948 20.9873 17.9805 19.785 17.9805 18.58V14.1981C16.7143 13.9034 15.5196 13.3511 14.4366 12.6368H11.5634C10.4804 13.3511 9.28563 13.9034 8.01948 14.1981ZM7.26115 18.58C7.26115 19.9763 7.92095 21.3473 8.89845 22.4951C9.98021 23.7654 11.4092 24.7588 13 25.2705C14.5908 24.7589 16.0198 23.7653 17.1016 22.4951C18.0791 21.3473 18.7389 19.9763 18.7389 18.58V13.5812C17.1596 13.2689 15.9974 12.7763 14.6625 11.8784H11.3375C9.99586 12.7811 8.84163 13.2687 7.26115 13.5812V18.58ZM18.225 11.4459C18.225 8.56039 15.8858 6.2211 13.0002 6.2211C10.1146 6.2211 7.77503 8.56039 7.77503 11.4459C7.77503 11.6219 7.81452 11.787 7.88753 11.9415C9.0135 11.6181 9.92593 11.0924 10.8704 10.4184H15.1297C16.0742 11.0924 16.9866 11.6182 18.1126 11.9415C18.1855 11.787 18.225 11.6219 18.225 11.4459ZM10.5852 2.41453C10.5852 3.74833 11.6664 4.82945 13.0002 4.82945C14.334 4.82945 15.4151 3.74833 15.4151 2.41453C15.4151 1.08117 14.3339 2.03523e-09 13.0002 2.03523e-09C11.6664 -5.41646e-05 10.5852 1.08111 10.5852 2.41453ZM2.81028 5.66453C2.81028 6.99833 3.89144 8.07945 5.22519 8.07945C6.55899 8.07945 7.6401 6.99833 7.6401 5.66453C7.6401 4.33117 6.55893 3.25 5.22519 3.25C3.89144 3.24995 2.81028 4.33117 2.81028 5.66453ZM26 14.696C26 11.8104 23.6608 9.47115 20.7752 9.47115C20.0658 9.47115 19.3896 9.6128 18.7728 9.8689C18.9445 10.4989 19.0999 11.4837 18.8647 12.1157C19.3055 12.1931 19.7532 12.217 20.1989 12.2524V16.8479C22.9886 16.962 26 16.245 26 14.696ZM5.80114 16.8479V12.2524C6.24693 12.217 6.69451 12.1931 7.13532 12.1157C6.90008 11.4837 7.05548 10.4987 7.22724 9.86879C6.61061 9.61274 5.93445 9.47115 5.22519 9.47115C2.33957 9.47115 0 11.8104 0 14.696C0 16.245 3.0114 16.962 5.80114 16.8479Z" fill="#fff"></path></svg>