<svg width="18" height="18" viewBox="0 0 20 26" fill="none" xmlns="http://www.w3.org/2000/svg" className="pageIcon ant-menu-item-icon"><path d="M19.3257 2.19365C18.8903 1.7615 18.3111 1.52344 17.6949 1.52344H16.6721V2.53906C16.6721 3.65909 15.7529 4.57031 14.623 4.57031H5.40251C4.27267 4.57031 3.35349 3.65909 3.35349 2.53906V1.52344H2.32728C1.05764 1.52344 0.0235913 2.54739 0.0221554 3.80605L1.60955e-06 23.7123C-0.000716339 24.3232 0.238771 24.8976 0.674207 25.3298C1.10975 25.762 1.68892 26 2.30513 26H17.6727C18.9423 26 19.9764 24.976 19.9778 23.7174L20 3.81113C20.0007 3.20029 19.7612 2.62585 19.3257 2.19365ZM10.2612 9.14062H15.7204C16.1447 9.14062 16.4887 9.48167 16.4887 9.90234C16.4887 10.323 16.1447 10.6641 15.7204 10.6641H10.2612C9.83687 10.6641 9.49287 10.323 9.49287 9.90234C9.49287 9.48167 9.83687 9.14062 10.2612 9.14062ZM10.2612 14.2188H15.7204C16.1447 14.2188 16.4887 14.5598 16.4887 14.9805C16.4887 15.4011 16.1447 15.7422 15.7204 15.7422H10.2612C9.83687 15.7422 9.49287 15.4011 9.49287 14.9805C9.49287 14.5598 9.83687 14.2188 10.2612 14.2188ZM10.2612 19.2969H15.7423C16.1667 19.2969 16.5107 19.6379 16.5107 20.0586C16.5107 20.4793 16.1667 20.8203 15.7423 20.8203H10.2612C9.83687 20.8203 9.49287 20.4793 9.49287 20.0586C9.49287 19.6379 9.83687 19.2969 10.2612 19.2969ZM3.71441 9.17069C4.01451 8.87321 4.50098 8.87321 4.80108 9.17069L5.21887 9.58491L6.99087 7.82829C7.29098 7.53086 7.77744 7.53076 8.07749 7.82829C8.37754 8.12571 8.37754 8.60803 8.07749 8.90551L5.76215 11.2007C5.61805 11.3436 5.42262 11.4239 5.21882 11.4239C5.01503 11.4239 4.81959 11.3436 4.67549 11.2007L3.71436 10.2479C3.41431 9.95043 3.41431 9.46811 3.71441 9.17069ZM3.71441 14.6366C4.01451 14.3392 4.50098 14.3392 4.80108 14.6366L5.21887 15.0508L6.99087 13.2942C7.29092 12.9967 7.77744 12.9967 8.07749 13.2942C8.37754 13.5916 8.37754 14.0739 8.07749 14.3714L5.76215 16.6667C5.6181 16.8095 5.42262 16.8898 5.21882 16.8898C5.01503 16.8898 4.81959 16.8096 4.67549 16.6667L3.71436 15.7138C3.41431 15.4164 3.41431 14.9341 3.71441 14.6366ZM3.71441 19.7148C4.01451 19.4173 4.50098 19.4173 4.80108 19.7148L5.21887 20.1289L6.99087 18.3723C7.29092 18.0749 7.77744 18.0749 8.07749 18.3723C8.37754 18.6697 8.37754 19.152 8.07749 19.4495L5.76215 21.7448C5.6181 21.8876 5.42262 21.9679 5.21882 21.9679C5.01503 21.9679 4.81959 21.8877 4.67549 21.7448L3.71436 20.7919C3.41431 20.4945 3.41431 20.0122 3.71441 19.7148Z" fill="white"></path><path d="M4.89026 2.53906C4.89026 2.81953 5.11959 3.04688 5.40252 3.04688H14.623C14.9059 3.04688 15.1353 2.81953 15.1353 2.53906V0.507812C15.1353 0.227348 14.9059 0 14.623 0H5.40252C5.11959 0 4.89026 0.227348 4.89026 0.507812V2.53906Z" fill="white"></path></svg>